<svg width="1200" height="420" xmlns="http://www.w3.org/2000/svg" viewBox="0 0 1200 420"><g fill="none" stroke-linecap="round" stroke-linejoin="round"><path d="M20 390 C200 378 380 400 600 388 S1000 378 1180 390" stroke="#3FA66B" stroke-width="8"/><path d="M1120 108 m-30 0 a30 30 0 1 0 60 0 a30 30 0 1 0 -60 0" stroke="#FFB000" stroke-width="8" fill="#FFE08A"/><path d="M1120 64v-6 M1120 152v6 M1076 108h-8 M1164 108h8 M1089 77l-6-6 M1151 77l6-6 M1089 139l-6 6 M1151 139l6 6" stroke="#FFB000" stroke-width="6"/><path d="M300 118 c-20 0 -22 -26 -2 -28 c2 -22 36 -24 40 -4 c20 -6 30 20 12 32 z" stroke="#1D4FA0" stroke-width="6" fill="#CFE3F7"/><path d="M850 110 c-20 0 -22 -26 -2 -28 c2 -22 36 -24 40 -4 c20 -6 30 20 12 32 z" stroke="#1D4FA0" stroke-width="6" fill="#CFE3F7"/><path d="M60 390 V260 H250 V390" stroke="#1D4FA0" stroke-width="7" fill="#CFE3F7"/><path d="M46 264 L155 190 L264 264 Z" stroke="#E0524C" stroke-width="7" fill="#F7B9B3"/><path d="M135 390 V335 H175 V390" stroke="#FFB000" stroke-width="6" fill="#FFE08A"/><path d="M80 285 h30 v30 h-30 z M95 285 v30 M80 300 h30 M200 285 h30 v30 h-30 z M215 285 v30 M200 300 h30" stroke="#1D4FA0" stroke-width="5" fill="#FFFFFF"/><circle cx="155" cy="232" r="14" stroke="#3FA66B" stroke-width="7" fill="none"/><path d="M155 246 l-8 8 M155 246 l8 8 M150 244 h10" stroke="#E0524C" stroke-width="5"/><path d="M322 388 V330 q0 -18 16 -18 q16 0 16 16" stroke="#E0524C" stroke-width="8"/><path d="M345 358 h36 v30 h-36 z" stroke="#1D4FA0" stroke-width="6" fill="#CFE3F7"/><path d="M363 358 v30 M345 372 h36 M363 358 q-9 -12 -13 0 q6 4 13 0 q9 -12 13 0 q-6 4 -13 0" stroke="#FFB000" stroke-width="5"/><rect x="585" y="348" width="30" height="40" stroke="#8A5A2B" stroke-width="6" fill="#FBD0A6"/><path d="M470 350 L600 200 L730 350 Q600 368 470 350 Z" stroke="#3FA66B" stroke-width="7" fill="#CDEBC8"/><path d="M500 260 L600 140 L700 260 Q600 276 500 260 Z" stroke="#3FA66B" stroke-width="7" fill="#CDEBC8"/><path d="M530 180 L600 92 L670 180 Q600 194 530 180 Z" stroke="#3FA66B" stroke-width="7" fill="#CDEBC8"/><path d="M548 160 Q600 180 652 150 M518 240 Q600 262 682 222 M494 330 Q600 350 712 300" stroke="#083078" stroke-width="4"/><g stroke-width="4"><circle cx="574" cy="173" r="6" stroke="#E0524C" fill="#F7B9B3"/><circle cx="600" cy="174" r="6" stroke="#FFB000" fill="#FFE08A"/><circle cx="626" cy="168" r="6" stroke="#1D4FA0" fill="#CFE3F7"/><circle cx="534" cy="250" r="6" stroke="#E86FA6" fill="#F9C6DC"/><circle cx="559" cy="253" r="6" stroke="#FFB000" fill="#FFE08A"/><circle cx="600" cy="253" r="6" stroke="#E0524C" fill="#F7B9B3"/><circle cx="641" cy="244" r="6" stroke="#7B5EA7" fill="#DCCEF0"/><circle cx="666" cy="235" r="6" stroke="#1D4FA0" fill="#CFE3F7"/><circle cx="537" cy="341" r="6" stroke="#FFB000" fill="#FFE08A"/><circle cx="580" cy="341" r="6" stroke="#E86FA6" fill="#F9C6DC"/><circle cx="623" cy="335" r="6" stroke="#1D4FA0" fill="#CFE3F7"/><circle cx="668" cy="323" r="6" stroke="#E0524C" fill="#F7B9B3"/></g><g stroke-width="5"><circle cx="585" cy="138" r="9" stroke="#E0524C" fill="#F7B9B3"/><circle cx="572" cy="208" r="10" stroke="#1D4FA0" fill="#CFE3F7"/><circle cx="632" cy="214" r="10" stroke="#E86FA6" fill="#F9C6DC"/><circle cx="548" cy="298" r="10" stroke="#7B5EA7" fill="#DCCEF0"/><circle cx="612" cy="292" r="10" stroke="#FFB000" fill="#FFE08A"/><circle cx="662" cy="290" r="10" stroke="#E0524C" fill="#F7B9B3"/></g><polygon points="600,54 606.5,71 624.7,72 610.5,83.4 615.3,101 600,91 584.7,101 589.5,83.4 575.3,72 593.5,71" stroke="#FFB000" stroke-width="6" fill="#FFE08A"/><path d="M556 70 h-10 M644 70 h10 M566 50 l-6 -6 M634 50 l6 -6" stroke="#FFB000" stroke-width="5"/><path d="M455 345 h50 v43 h-50 z" stroke="#E0524C" stroke-width="6" fill="#F7B9B3"/><path d="M480 345 v43 M455 364 h50 M480 345 q-10 -13 -14 0 q7 4 14 0 q10 -13 14 0 q-7 4 -14 0" stroke="#3FA66B" stroke-width="5"/><path d="M675 335 h60 v53 h-60 z" stroke="#7B5EA7" stroke-width="6" fill="#DCCEF0"/><path d="M705 335 v53 M675 360 h60 M705 335 q-11 -14 -16 0 q8 4 16 0 q11 -14 16 0 q-8 4 -16 0" stroke="#FFB000" stroke-width="5"/><path d="M430 332 L424 386 M450 332 L456 386" stroke="#1D4FA0" stroke-width="7"/><path d="M424 284 L456 284 L462 334 L418 334 Z" stroke="#E0524C" stroke-width="6" fill="#F7B9B3"/><path d="M426 292 L408 322 M454 290 L500 246" stroke="#083078" stroke-width="6"/><circle cx="440" cy="262" r="18" stroke="#083078" stroke-width="6" fill="#8D5A3B" fill-opacity="0.75"/><path d="M424 254 q-6 -12 6 -16 q4 -12 16 -6 q10 -8 16 4 q8 4 4 16" stroke="#083078" stroke-width="6"/><path d="M434 262 h0.1 M446 262 h0.1 M434 270 q6 5 12 0" stroke="#083078" stroke-width="5"/><path d="M506 241 V232" stroke="#083078" stroke-width="4"/><circle cx="506" cy="250" r="9" stroke="#FFB000" stroke-width="5" fill="#FFE08A"/><path d="M822 336 L816 386 M838 336 L844 386" stroke="#7B5EA7" stroke-width="7"/><path d="M816 288 L844 288 L856 340 L804 340 Z" stroke="#3FA66B" stroke-width="6" fill="#CDEBC8"/><circle cx="830" cy="266" r="18" stroke="#083078" stroke-width="6" fill="#F3D7B5"/><path d="M812 262 q2 -24 18 -22 q16 -2 18 22 M812 258 q-12 4 -10 18 M848 258 q12 4 10 18" stroke="#F28C28" stroke-width="7"/><path d="M824 266 h0.1 M836 266 h0.1 M824 274 q6 5 12 0" stroke="#083078" stroke-width="5"/><path d="M770 294 h40 v36 h-40 z" stroke="#E86FA6" stroke-width="6" fill="#F9C6DC"/><path d="M790 294 v36 M770 312 h40 M790 294 q-10 -12 -14 0 q7 4 14 0 q10 -12 14 0 q-7 4 -14 0" stroke="#E0524C" stroke-width="5"/><path d="M818 296 L808 310 M842 296 L812 322" stroke="#083078" stroke-width="6"/><path d="M943 334 L938 386 M959 334 L964 386" stroke="#8A5A2B" stroke-width="7"/><path d="M934 286 L966 286 L970 336 L930 336 Z" stroke="#1D4FA0" stroke-width="6" fill="#CFE3F7"/><path d="M936 294 L920 326 M964 292 L990 262" stroke="#083078" stroke-width="6"/><circle cx="950" cy="264" r="18" stroke="#083078" stroke-width="6" fill="#D9A77A"/><path d="M932 260 q4 -22 18 -20 q14 -2 18 20" stroke="#8A5A2B" stroke-width="7"/><path d="M944 264 h0.1 M956 264 h0.1 M944 272 q6 5 12 0" stroke="#083078" stroke-width="5"/><path d="M1093 334 L1088 386 M1109 334 L1114 386" stroke="#E86FA6" stroke-width="7"/><path d="M1084 286 L1116 286 L1120 336 L1080 336 Z" stroke="#F28C28" stroke-width="6" fill="#FBD0A6"/><path d="M1086 292 L1060 262 M1114 294 L1130 326" stroke="#083078" stroke-width="6"/><circle cx="1100" cy="264" r="18" stroke="#083078" stroke-width="6" fill="#F3D7B5"/><path d="M1082 272 q-4 -30 18 -30 q22 0 18 30" stroke="#083078" stroke-width="7"/><path d="M1094 264 h0.1 M1106 264 h0.1 M1094 272 q6 5 12 0" stroke="#083078" stroke-width="5"/><path d="M990 262 Q1025 305 1060 262" stroke="#083078" stroke-width="4"/><g stroke-width="4"><circle cx="1008" cy="284" r="6" stroke="#E0524C" fill="#F7B9B3"/><circle cx="1025" cy="290" r="6" stroke="#FFB000" fill="#FFE08A"/><circle cx="1042" cy="284" r="6" stroke="#3FA66B" fill="#CDEBC8"/></g><path d="M400 150 v16 M392 158 h16 M760 168 v16 M752 176 h16 M1010 150 v16 M1002 158 h16 M250 140 v14 M243 147 h14" stroke="#FFB000" stroke-width="5"/></g></svg>